<?xml version="1.0" standalone="no"?>
<!DOCTYPE svg PUBLIC "-//W3C//DTD SVG 20010904//EN"
 "http://www.w3.org/TR/2001/REC-SVG-20010904/DTD/svg10.dtd">
<svg version="1.0" xmlns="http://www.w3.org/2000/svg"
 width="599.000000pt" height="416.000000pt" viewBox="0 0 599.000000 416.000000"
 preserveAspectRatio="xMidYMid meet">
<metadata>
Created by potrace 1.16, written by Peter Selinger 2001-2019
</metadata>
<g transform="translate(0.000000,416.000000) scale(0.100000,-0.100000)"
fill="#000000" stroke="none">
<path d="M0 2080 l0 -2080 2995 0 2995 0 0 2080 0 2080 -2995 0 -2995 0 0
-2080z m4480 1956 c9 -11 11 -194 11 -755 0 -408 -3 -745 -6 -751 -9 -14 -51
-12 -63 3 -8 9 -11 242 -13 747 -1 734 -1 734 21 752 27 22 34 22 50 4z
m-2316 -62 c14 -14 16 -91 16 -698 0 -517 -3 -685 -12 -694 -14 -14 -54 -16
-63 -2 -3 5 -6 321 -6 702 0 713 0 707 38 708 6 0 19 -7 27 -16z m2441 -34 c8
-14 8 -1317 0 -1330 -3 -5 -22 -10 -41 -10 -34 0 -34 0 -34 675 0 628 1 675
17 684 18 10 46 0 58 -19z m-1861 -19 c15 -17 17 -61 18 -497 1 -818 2 -783
-26 -795 -16 -8 -30 -8 -41 -1 -17 9 -18 50 -17 646 1 648 2 666 37 666 6 0
20 -8 29 -19z m-692 -8 c14 -16 16 -92 15 -641 -1 -624 -1 -624 -23 -639 -17
-10 -28 -12 -41 -5 -17 10 -18 45 -19 644 -1 397 3 638 9 646 14 17 41 15 59
-5z m-818 -38 c13 -13 15 -90 15 -591 0 -317 -3 -582 -6 -590 -6 -17 -59 -19
-69 -3 -4 6 -7 272 -7 590 1 594 1 609 39 609 7 0 19 -7 28 -15z m3135 1 c8
-9 10 -176 9 -601 -3 -588 -3 -588 -25 -602 -19 -13 -24 -12 -40 4 -18 18 -18
46 -16 607 2 469 5 591 15 597 20 13 44 11 57 -5z m351 -31 c18 -22 17 -1109
0 -1131 -16 -18 -57 -18 -67 1 -8 14 -7 1110 2 1133 6 17 50 15 65 -3z m-3602
-18 c15 -18 19 -1084 5 -1098 -6 -6 -23 -9 -39 -7 -29 3 -29 3 -34 108 -11
201 -2 981 11 996 14 18 43 18 57 1z m1162 -17 c19 -19 20 -33 20 -477 0 -252
3 -481 6 -508 5 -41 3 -55 -14 -75 -17 -21 -24 -23 -48 -15 -29 10 -29 10 -30
535 0 451 2 527 14 543 19 22 27 22 52 -3z m1739 -34 c17 -20 17 -972 0 -992
-15 -19 -43 -18 -60 2 -19 23 -20 971 -1 991 17 17 47 17 61 -1z m229 -48 c9
-9 12 -123 12 -450 0 -439 0 -439 -22 -447 -29 -11 -64 10 -60 36 6 31 3 813
-3 823 -7 11 30 50 48 50 7 0 18 -5 25 -12z m-110 -10 c9 -9 12 -120 12 -438
0 -413 -1 -427 -20 -445 -17 -16 -22 -16 -41 -3 -22 14 -22 14 -21 447 1 238
4 436 7 442 9 13 49 11 63 -3z m686 -11 c18 -13 19 -38 19 -429 0 -229 -3
-421 -7 -427 -10 -15 -51 -14 -63 2 -7 7 -10 165 -9 423 1 332 4 414 15 427
16 20 22 21 45 4z m-3474 -61 c8 -11 11 -108 11 -371 0 -195 -3 -360 -6 -365
-10 -16 -62 -12 -69 6 -3 9 -6 174 -6 368 0 260 3 355 12 364 16 16 43 15 58
-2z m1280 -11 c9 -11 13 -103 15 -360 3 -374 3 -370 -52 -363 -28 3 -28 3 -31
362 -3 376 -3 375 39 376 9 0 22 -7 29 -15z m-230 -10 c10 -12 13 -97 15 -348
1 -281 -1 -335 -13 -349 -20 -24 -49 -23 -62 1 -15 29 -14 683 2 699 17 17 43
15 58 -3z m111 -5 c18 -10 19 -25 19 -345 0 -335 0 -335 -27 -341 -55 -14 -55
-18 -54 345 1 334 2 350 34 351 5 0 17 -5 28 -10z m-923 -13 c7 -8 10 -125 10
-335 -1 -306 -2 -323 -20 -333 -19 -10 -58 -4 -58 9 0 4 -3 39 -5 77 -11 150
-4 562 9 584 10 15 51 14 64 -2z m3366 -3 c3 -9 6 -158 6 -333 0 -328 -2 -341
-41 -341 -38 0 -40 18 -40 350 0 177 3 326 6 331 10 15 62 10 69 -7z m-1274
-22 c1 -4 2 -141 5 -304 4 -323 4 -323 -52 -316 -28 3 -28 3 -31 298 -1 162 0
305 3 317 3 12 13 23 23 26 18 4 52 -9 52 -21z m-2214 6 c11 -18 12 -601 1
-615 -14 -19 -55 -16 -66 5 -5 10 -9 138 -8 303 2 226 5 289 16 302 16 20 47
22 57 5z m1745 -15 c11 -13 14 -75 16 -292 1 -151 -3 -283 -7 -292 -14 -25
-49 -30 -68 -11 -15 15 -17 48 -15 306 1 301 2 305 44 306 9 0 23 -7 30 -17z
m693 1 c14 -13 16 -54 16 -294 0 -240 -2 -281 -16 -294 -20 -21 -37 -20 -60 2
-18 16 -19 33 -14 270 3 140 1 260 -3 268 -11 20 18 64 43 64 10 0 26 -7 34
-16z m-124 -14 c19 -10 20 -24 19 -280 -1 -257 -2 -271 -20 -281 -20 -10 -59
-4 -59 10 0 4 -1 126 -1 271 -1 244 0 264 17 277 21 16 20 16 44 3z m-1843
-22 c6 -8 11 -120 12 -265 3 -253 3 -253 -24 -265 -52 -23 -55 -9 -60 271 -3
139 -2 257 1 262 8 13 60 11 71 -3z m923 -3 c8 -10 13 -74 16 -202 2 -103 6
-207 9 -231 8 -53 -13 -92 -50 -92 -13 0 -27 5 -30 11 -8 12 -7 508 1 521 8
13 41 9 54 -7z m698 -47 c17 -17 17 -399 0 -416 -15 -15 -54 -16 -63 -2 -9 14
-9 405 -1 419 9 15 49 14 64 -1z m-2550 -205 c2 -174 2 -183 -18 -193 -14 -7
-26 -8 -39 0 -17 9 -20 25 -23 172 -5 184 2 212 50 206 27 -3 27 -3 30 -185z
m1970 174 c14 -17 18 -335 5 -348 -6 -6 -23 -9 -39 -7 -29 3 -29 3 -32 173 -2
151 -1 171 15 182 22 16 38 16 51 0z m115 -5 c14 -15 16 -41 12 -182 -4 -165
-4 -165 -31 -168 -14 -2 -31 1 -35 5 -5 5 -11 81 -13 169 -2 129 0 162 12 177
19 22 35 22 55 -1z m346 4 c8 -9 12 -70 12 -182 1 -157 0 -169 -19 -182 -24
-16 -51 -6 -61 22 -5 11 -7 93 -5 180 2 164 6 175 45 176 9 0 22 -6 28 -14z
m-1745 -39 c15 -11 17 -30 17 -135 0 -127 -6 -152 -41 -152 -36 0 -44 26 -41
148 2 90 6 121 18 135 19 20 24 21 47 4z m124 0 c6 -6 12 -70 13 -140 3 -134
0 -146 -42 -147 -34 0 -41 26 -41 152 0 106 2 123 18 135 22 16 39 17 52 0z
m-1043 -43 c12 -12 15 -34 13 -100 -3 -93 -10 -107 -55 -102 -26 3 -28 7 -33
53 -13 127 24 200 75 149z m114 2 c8 -9 11 -47 9 -107 -3 -94 -3 -94 -38 -94
-35 0 -35 0 -38 94 -3 97 5 121 38 121 10 0 23 -6 29 -14z m2433 -23 c13 -12
18 -31 18 -73 0 -60 -11 -80 -45 -80 -33 0 -45 20 -45 79 0 78 32 111 72 74z
m-2708 -959 c14 -6 16 -71 16 -633 0 -344 4 -631 8 -637 6 -10 45 -34 54 -34
2 0 2 271 1 602 -1 332 1 625 5 653 7 50 7 50 162 50 155 0 155 0 158 -990 2
-1097 6 -1031 -64 -1126 -42 -57 -94 -94 -168 -118 -42 -13 -80 -15 -218 -11
-181 5 -194 9 -242 74 -20 26 -21 44 -26 313 -4 219 -2 287 7 290 7 3 26 -5
42 -16 16 -12 31 -21 34 -21 7 0 219 -119 234 -132 9 -7 13 -38 13 -99 0 -48
4 -90 8 -93 5 -3 18 -2 30 1 21 5 22 11 22 119 0 114 0 114 -42 134 -24 11
-101 57 -173 103 -194 123 -175 28 -175 867 0 383 3 700 7 703 8 9 286 9 307
1z m1583 -6 c4 -7 10 -440 13 -963 5 -950 5 -950 30 -950 25 0 25 0 30 960 5
960 5 960 154 963 101 2 153 -1 162 -9 12 -10 14 -167 14 -978 0 -872 -2 -972
-16 -1017 -83 -245 -394 -330 -584 -158 -47 43 -78 88 -102 149 -14 36 -17
153 -19 1016 -2 536 0 980 4 987 11 17 302 17 314 0z m1779 -33 c73 -36 145
-111 175 -182 24 -58 24 -58 27 -877 2 -701 0 -827 -13 -877 -27 -106 -95
-188 -199 -239 -56 -28 -75 -32 -149 -33 -77 -1 -92 3 -150 31 -85 42 -137 94
-178 178 -34 69 -34 69 -34 914 0 845 0 845 26 901 92 195 308 275 495 184z
m765 11 c83 -34 152 -99 193 -186 31 -65 31 -65 31 -1045 0 -980 0 -980 -165
-980 -165 0 -165 0 -170 955 -5 955 -5 955 -28 955 -23 0 -23 0 -25 -955 -2
-955 -2 -955 -169 -958 -168 -2 -168 -2 -168 1050 0 1046 0 1052 21 1095 25
51 68 84 123 95 23 4 97 5 166 3 107 -3 135 -7 191 -29z m-3146 -5 c76 -35
151 -106 183 -173 41 -87 43 -146 40 -963 -3 -736 -4 -783 -22 -830 -26 -68
-68 -127 -119 -167 -84 -66 -128 -81 -237 -80 -137 1 -253 77 -320 209 -25 48
-25 48 -28 891 -3 895 -4 872 43 961 26 52 105 122 168 151 52 24 75 29 145
30 70 0 92 -4 147 -29z m1585 -2 c72 -34 131 -93 172 -171 33 -63 33 -63 36
-400 3 -320 2 -338 -15 -337 -10 0 -83 37 -163 83 -145 82 -145 82 -150 300
-4 190 -7 220 -22 229 -39 25 -43 2 -40 -241 3 -230 3 -230 95 -283 51 -30 99
-58 109 -64 9 -5 41 -25 72 -43 66 -39 103 -81 111 -125 3 -18 5 -228 3 -467
-3 -435 -3 -435 -41 -502 -125 -223 -415 -259 -585 -73 -93 101 -92 97 -92
610 0 311 3 445 11 445 10 0 180 -89 274 -144 40 -23 40 -23 45 -362 5 -339 5
-339 27 -342 16 -2 24 3 28 20 3 13 4 173 3 356 -3 371 12 329 -148 416 -47
26 -138 83 -178 111 -13 10 -32 31 -43 49 -18 29 -19 53 -19 363 0 333 0 333
30 397 37 78 119 156 194 186 75 30 211 24 286 -11z m2345 10 c68 -25 158
-105 189 -168 30 -61 44 -143 46 -273 1 -107 1 -107 -37 -132 -21 -14 -42 -26
-47 -26 -5 0 -17 -7 -26 -15 -16 -14 -87 -56 -167 -97 -24 -12 -46 -19 -49
-15 -4 3 -6 89 -5 190 2 202 -5 240 -42 235 -22 -3 -22 -3 -28 -278 -3 -151
-3 -506 0 -788 4 -514 4 -514 28 -529 13 -9 26 -13 29 -11 3 3 6 182 7 396 3
372 2 391 -16 394 -10 2 -18 6 -17 11 0 4 0 75 0 157 0 150 0 150 120 150 128
0 155 -7 197 -52 53 -57 53 -54 53 -655 0 -334 -4 -572 -10 -593 -5 -20 -28
-54 -50 -75 -41 -40 -41 -40 -198 -45 -180 -6 -227 2 -309 57 -66 44 -120 116
-144 194 -18 57 -19 106 -19 872 0 812 0 812 24 879 36 103 103 172 204 214
76 31 188 33 267 3z"/>
<path d="M3787 2054 c-4 -4 -7 -357 -7 -784 0 -590 3 -779 12 -788 19 -19 47
-14 53 11 3 12 4 368 3 792 -3 770 -3 770 -28 773 -14 2 -29 0 -33 -4z"/>
<path d="M1425 2058 c-3 -7 -4 -366 -3 -798 3 -785 3 -785 28 -785 25 0 25 0
25 795 0 795 0 795 -23 798 -12 2 -24 -3 -27 -10z"/>
</g>
</svg>
